<svg width="361" height="201" viewBox="0 0 361 201" fill="none" xmlns="http://www.w3.org/2000/svg">
<path d="M357.929 197.573H146.507C151.622 196.768 155.618 192.581 156.146 187.366C156.186 186.979 156.205 186.586 156.205 186.188V186.035H242.896C244.716 186.035 246.127 184.55 246.128 182.785C246.128 182.639 246.119 182.492 246.099 182.343C246.023 181.77 245.971 181.19 245.941 180.604C256.987 180.41 276.039 180.014 286.606 179.791C286.584 180.173 286.555 180.552 286.516 180.928C286.515 180.938 286.514 180.948 286.513 180.956C286.513 180.957 286.513 180.957 286.513 180.957C286.51 180.984 286.508 181.011 286.504 181.037C286.488 181.189 286.48 181.339 286.48 181.487C286.476 183.715 288.267 185.58 290.552 185.58H306.296C309.159 185.58 311.48 183.261 311.48 180.401V179.548V176.331C311.48 175.471 310.968 174.728 310.229 174.393V166.164C310.229 164.343 310.112 162.522 309.839 160.721C308.235 150.159 303.053 147.94 287.72 144.877C270.801 141.496 249.323 130.473 249.323 130.473C249.323 130.473 212.689 112.542 203.715 110.484C198.364 109.257 188.355 108.971 177.218 108.971C170.368 108.971 163.092 109.08 156.205 109.143V46.4678H160.871V73.4976H167.106V82.7569H171.407V101.693H176.567V40.9613H179.363V31.4518H203.873V40.9613H206.669V86.0288L214.84 85.8138V56.9793H238.061L239.104 111.181L242.576 110.966V92.6708H250.102V78.2791H254.617V68.6117H272.248V78.2791H276.763V92.6708H284.289V126.443L290.739 126.229V92.7328H312.302V124.246V129.366H325.471V113.468H341.386V149.172H357.929V197.573" fill="#E6EBF7"/>
<path d="M76.1027 196.51C76.1027 196.51 68.0405 150.034 64.7804 145.234C62.3056 141.591 59.4999 146.09 57.4282 150.589C55.7284 154.281 54.5226 157.972 54.3996 157.166C51.8193 140.272 52.3592 118.963 40.2912 115.734C33.4311 113.899 40.7448 131.648 39.8928 136.221C39.0409 140.794 27.629 124.467 20.6004 115.829C13.572 107.191 9.26824 111.957 13.3425 122.437C17.2821 132.569 31.554 144.443 28.3592 145.46C26.956 145.907 22.7126 143.433 18.1665 140.96C12.3624 137.803 6.06432 134.645 4.55044 137.562C1.24027 143.942 28.8364 155.201 26.0675 156.472C24.9715 156.975 22.2494 156.342 19.3603 155.71C14.9509 154.746 10.1526 153.782 10.1526 156.851C10.1526 161.932 28.3183 163.203 27.8457 165.4C27.483 167.086 24.7262 165.925 21.8326 164.764C18.6241 163.477 15.2472 162.19 14.7785 164.785C13.8669 169.834 30.269 170.216 29.6961 174.166C29.3669 176.434 25.2358 174.059 24.4885 177.179C22.7846 184.293 48.6307 194.261 48.6307 194.261L76.1027 196.51" fill="#730073"/>
<path d="M88.9649 197.712C85.6847 193.45 66.3092 169.604 54.5809 165.798C41.6349 161.597 53.8364 178.283 53.8364 178.283C53.8364 178.283 30.8706 153.11 22.4429 155.379C14.7176 157.459 22.4429 173.063 22.4429 173.063C22.4429 173.063 13.7419 164.423 3.19015 164.423C-7.0792 164.423 10.6476 196.072 11.5887 197.712H88.9649" fill="#D8B0D8"/>
<path d="M104.409 196.77C106.952 194.592 108.489 192.284 108.096 189.987C107.393 185.889 101.571 188.522 101.35 185.564C100.965 180.417 123.188 181.622 122.454 175.022C122.075 171.617 117.347 172.948 112.865 174.28C108.854 175.471 105.041 176.663 104.718 174.461C104.296 171.581 128.993 171.825 129.495 165.278C129.8 161.288 123.098 162.082 116.995 162.876C113.085 163.385 109.419 163.892 108.006 163.142C104.386 161.218 142.825 149.566 138.977 141.005C137.205 137.062 128.262 140.553 120.053 144.046C113.724 146.739 107.831 149.43 105.994 148.717C101.772 147.076 122.25 133.254 128.578 120.605C135.125 107.524 129.775 100.938 119.415 111.341C109.055 121.743 92.0056 141.6 91.305 135.619C90.6042 129.639 102.25 107.525 92.7895 109.181C76.1471 112.093 74.773 139.604 69.6141 161.105C69.3656 162.14 68.0795 157.164 66.1163 152.188C63.7613 146.219 60.432 140.25 56.7513 144.657C53.2797 148.813 59.718 179.418 63.7313 196.77H104.409" fill="#96D9C9"/>
<path d="M193.052 65.4709C193.052 70.3374 189.105 74.2809 184.233 74.2809C179.363 74.2809 175.416 70.3374 175.416 65.4709C175.416 60.6057 179.363 56.661 184.233 56.661C189.105 56.661 193.052 60.6057 193.052 65.4709Z" fill="white"/>
<path d="M261.018 54.7543C260.739 56.9476 263.027 58.6892 265.061 58.552C267.31 58.4002 269.218 56.5578 269.546 54.3498C269.902 51.9609 268.465 50.0493 266.242 49.8744C264.078 49.7044 262.693 51.6294 263.318 53.5713C263.765 54.9632 265.038 55.4817 265.679 55.098C266.178 54.7992 266.148 54.0438 265.544 53.9102C265.301 53.8568 265.051 53.9916 264.923 54.1774C264.394 53.9673 263.889 53.0054 264.231 51.9646C264.669 50.6371 266.349 50.5618 267.392 51.1812C268.72 51.9694 268.929 53.6661 268.442 55.019C267.93 56.44 266.535 57.5585 265.015 57.6654C263.292 57.7881 261.778 56.4691 261.639 54.7555C261.607 54.351 261.068 54.3608 261.018 54.7543" fill="#800080"/>
<path d="M299.573 47.4127L301.017 44.1566L299.151 41.1228C298.939 40.7779 299.216 40.3383 299.619 40.3795L303.165 40.7463L305.476 38.0344C305.74 37.7259 306.244 37.8534 306.329 38.2493L307.076 41.7313L310.371 43.0903C310.746 43.2458 310.782 43.7631 310.43 43.9659L307.346 45.7525L307.07 49.3036C307.04 49.7081 306.557 49.9012 306.254 49.6303L303.602 47.2512L300.136 48.0867C299.742 48.1827 299.409 47.7843 299.573 47.4127" fill="#800080"/>
<path d="M164.35 24.3531L165.433 21.9107L164.032 19.6348C163.873 19.3761 164.081 19.047 164.384 19.0773L167.044 19.3518L168.777 17.3187C168.975 17.0868 169.352 17.1827 169.417 17.4803L169.977 20.0914L172.449 21.1116C172.731 21.227 172.756 21.6156 172.494 21.7686L170.18 23.1082L169.973 25.7716C169.949 26.0752 169.588 26.2197 169.362 26.0157L167.371 24.2328L164.772 24.8595C164.476 24.93 164.226 24.6312 164.35 24.3531" fill="#800080"/>
<path d="M323.826 75.5974L325.359 72.8138L330.115 74.7837L332.86 70.9908L336.661 71.8835L337.113 69.9622L332.031 68.7671L329.429 72.362L324.481 70.3119L322.174 74.5007L323.826 75.5974" fill="#800080"/>
<path d="M199.074 15.5371L196.373 13.8586L198.598 9.21926L194.952 6.27898L196.047 2.53468L194.151 1.98088L192.685 6.98704L196.14 9.7743L193.826 14.6007L197.89 17.1268L199.074 15.5371" fill="#800080"/>
<path d="M241.83 31.9558L243.617 29.0434L240.774 27.8921L238.987 30.8044L241.83 31.9558ZM234.587 34.5548L236.585 31.3109L234.981 30.6611C234.629 30.519 234.459 30.1182 234.602 29.7672C234.745 29.4163 235.145 29.2474 235.496 29.3895L237.347 30.1401L239.135 27.2277L237.419 26.5331C237.068 26.3897 236.899 25.9902 237.041 25.6392C237.185 25.2882 237.585 25.1194 237.936 25.2615L239.896 26.0558L241.972 22.7207C242.148 22.4366 242.503 22.3212 242.812 22.4475L243.111 22.5689C243.505 22.728 243.66 23.2005 243.439 23.5624L241.509 26.7092L244.351 27.8605L246.426 24.5255C246.602 24.2425 246.957 24.1271 247.267 24.2522L247.594 24.3846C247.987 24.5437 248.143 25.0174 247.921 25.3781L245.991 28.5248L247.596 29.1758C247.947 29.3179 248.117 29.7175 247.974 30.0684C247.831 30.4194 247.431 30.5882 247.08 30.4462L245.229 29.6968L243.47 32.6201L245.184 33.3148C245.535 33.4569 245.704 33.8564 245.562 34.2074C245.42 34.5584 245.02 34.7285 244.668 34.5851L242.707 33.7909L240.587 37.2315C240.412 37.5169 240.056 37.6335 239.745 37.5072L239.395 37.3651C239.002 37.206 238.846 36.7312 239.069 36.3705L241.067 33.1265L238.225 31.9752L236.105 35.4159C235.93 35.7 235.574 35.8166 235.263 35.6915L234.912 35.5494C234.52 35.3904 234.364 34.9155 234.587 34.5548" fill="#800080"/>
<path d="M147.622 0.685026L147.596 0.677744C147.367 0.593944 147.132 0.519841 146.894 0.451829C146.814 0.428754 146.733 0.404473 146.651 0.382612C146.566 0.359537 146.478 0.338881 146.392 0.318235C146.304 0.297588 146.215 0.276942 146.127 0.25751C146.043 0.239292 145.959 0.223509 145.875 0.20772C145.78 0.189503 145.685 0.1713 145.591 0.155511C145.509 0.142152 145.428 0.129988 145.346 0.117843C145.244 0.103269 145.141 0.0911337 145.036 0.0789887C144.961 0.0704873 144.886 0.0607761 144.81 0.0534891C144.691 0.0425587 144.572 0.034043 144.453 0.026756C144.39 0.021898 144.326 0.0170448 144.263 0.0134013C144.08 0.00489986 143.895 4.66263e-05 143.709 4.66263e-05H58.4527C58.2543 4.66263e-05 58.0571 0.00489511 57.8611 0.0146111C57.4692 0.0352575 57.0826 0.0741355 56.702 0.132431C56.5117 0.161579 56.3229 0.19559 56.1358 0.234453C51.2713 1.23155 47.526 5.30982 47.0157 10.3463C46.9764 10.7338 46.9564 11.126 46.9564 11.5244V153.742V186.188C46.9564 191.176 50.1175 195.422 54.5404 197.027C54.5599 197.033 54.5799 197.04 54.5994 197.047C54.8187 197.126 55.0417 197.196 55.2669 197.261C55.3482 197.284 55.429 197.308 55.511 197.33C55.5968 197.353 55.6836 197.374 55.7701 197.394C55.8582 197.415 55.9462 197.435 56.0349 197.455C56.1185 197.473 56.2028 197.489 56.2872 197.506C56.3816 197.523 56.4766 197.541 56.5719 197.556C56.6528 197.57 56.7338 197.582 56.8153 197.595C56.9182 197.609 57.0217 197.621 57.1256 197.633C57.201 197.642 57.2764 197.652 57.3523 197.659C57.4709 197.67 57.5903 197.678 57.7099 197.686C57.7727 197.689 57.8352 197.695 57.8984 197.699C58.0822 197.708 58.2668 197.712 58.4527 197.712H143.709C144.106 197.712 144.498 197.692 144.884 197.653C150.295 197.103 154.596 192.79 155.146 187.366C155.186 186.979 155.205 186.586 155.205 186.188V43.9708V11.5244C155.205 6.53646 152.045 2.29059 147.622 0.685026Z" fill="#660066" fill-opacity="0.8"/>
<path d="M52.5295 182.005H149.963V15.7071H52.5295V182.005Z" fill="#EAFCFC"/>
<path d="M136.326 119.639C131.006 126.125 125.379 132.952 120.46 138.899L91.9758 123.091L121.455 110.144L136.326 119.639ZM128.588 146.723L122.289 166.264L70.3846 147.31L71.3176 132.164L88.6439 124.555L128.588 146.723ZM69.9824 110.885V92.8141L97.663 92.2676L114.496 106.874L85.6126 119.56L69.9824 110.885ZM58.057 90.1532L73.313 70.8063L96.7429 71.7779V89.3893L58.057 90.1532M76.638 39.4153L111.232 54.2394V66.5811L76.638 65.148V39.4153M115.508 72.5552L117.103 105.302L99.6413 90.1495V71.8969L115.508 72.5552ZM149.963 85.7591L121.842 83.454L121.04 66.9879L114.13 66.7013V55.4818L149.963 70.8367V67.685L138.077 62.5914L135.826 15.7071H132.925L135.114 61.3223L114.13 52.3314V52.0108H113.383L108.609 49.9644L108.587 15.7071H105.688L105.709 48.7219L76.638 36.2649V15.7071H70.841V33.7812L52.5295 25.9344V29.0848L70.841 36.9316V55.2498L52.5295 46.7107V49.9061L70.841 58.4452V69.2615L54.3091 90.2273L52.5295 90.2625V93.159L67.084 92.8712V112.589L82.2807 121.023L66.3376 128.025L52.5295 118.181V121.739L65.5693 131.034L65.5802 131.02L62.4395 182.005H68.2474L70.1989 150.325L94.6959 159.271L91.8919 182.005H94.8122L97.4904 160.291L121.4 169.022L117.214 182.005H120.26L124.124 170.017L149.963 179.454V176.37L125.013 167.259L132.076 145.347L123.036 140.329C126.178 136.529 132.961 128.313 139.73 120.053C144.042 114.793 147.378 110.701 149.963 107.508V102.898C146.758 106.876 142.621 111.955 138.175 117.383L123.023 107.709L121.983 86.3712L149.963 88.6642V85.7591" fill="white"/>
<path d="M122.894 169.07L66.0394 148.772L67.035 130.27L116.906 108.247L97.18 91.3554V70.0058L72.7043 69.2699V49.8149H74.7746V67.2635L99.2502 67.9983V90.4045L120.747 108.813L69.0342 131.649L68.1895 147.342L123.591 167.123L122.894 169.07Z" fill="#C0DDE3"/>
<path d="M71.0986 40.7329C71.1177 39.2148 72.3648 38.0003 73.884 38.0197C75.4032 38.0392 76.6193 39.284 76.6002 40.8021C76.581 42.3202 75.3339 43.5347 73.8147 43.5153C72.2955 43.4971 71.0794 42.251 71.0986 40.7329ZM68.3844 42.9166L73.6896 53.4365L79.2584 43.0526C80.9071 39.2439 78.2605 34.8997 74.1105 34.7272C74.0491 34.7248 73.9874 34.7224 73.9256 34.7224C73.8638 34.7212 73.802 34.7212 73.7407 34.7224C69.5875 34.7904 66.8322 39.0666 68.3844 42.9166" fill="#183658"/>
<path d="M120.455 156.367C120.475 154.849 121.722 153.635 123.242 153.653C124.76 153.672 125.977 154.918 125.957 156.437C125.938 157.953 124.691 159.169 123.171 159.15C121.653 159.13 120.436 157.884 120.455 156.367M117.742 158.55L123.047 169.07L128.615 158.687C130.265 154.878 127.618 150.533 123.468 150.36C123.406 150.358 123.345 150.357 123.283 150.356C123.221 150.354 123.159 150.354 123.098 150.356C118.944 150.424 116.189 154.701 117.742 158.55" fill="#184655"/>
<path d="M121.83 10.4811H80.4897C80.4315 10.4811 80.3842 10.4337 80.3842 10.3754V8.50266C80.3842 8.44437 80.4315 8.39701 80.4897 8.39701H121.83C121.889 8.39701 121.936 8.44437 121.936 8.50266V10.3754C121.936 10.4337 121.889 10.4811 121.83 10.4811" fill="white"/>
<path d="M96.2562 190.018C96.2562 192.652 98.3913 194.799 101.025 194.799V194.799C103.659 194.799 105.794 192.652 105.794 190.018V190.018C105.794 187.384 103.659 185.237 101.025 185.237V185.237C98.3913 185.237 96.2562 187.384 96.2562 190.018V190.018Z" fill="#F8F8F8"/>
<path d="M139.556 182.005H120.26L121.442 178.334C128.766 179.51 135.807 180.616 139.638 181.154C139.617 181.439 139.589 181.724 139.556 182.005M117.214 182.005H94.8122L95.3566 177.592L96.2571 177.829C96.3558 177.846 96.454 177.854 96.5505 177.854C97.411 177.854 98.1559 177.203 98.2531 176.317C98.2545 176.303 98.256 176.289 98.2576 176.275C98.2584 176.267 98.2594 176.26 98.2604 176.251C98.2607 176.246 98.2612 176.243 98.2617 176.239C98.3078 175.832 98.3646 175.428 98.4314 175.028H101.141C105.449 175.737 111.958 176.805 118.548 177.868L117.214 182.005M91.8919 182.005H68.2474L68.6772 175.028H85.6448L92.5285 176.845L91.8919 182.005ZM62.4395 182.005H52.5295V175.028H62.8694L62.4395 182.005Z" fill="#C7EEF1"/>
<path d="M120.26 182.005H117.214L118.548 177.868C119.514 178.024 120.481 178.18 121.442 178.334L120.26 182.005M94.8122 182.005H91.8919L92.5284 176.845L95.3566 177.592L94.8122 182.005ZM68.2473 182.005H62.4395L62.8693 175.028H68.6772L68.2473 182.005Z" fill="#D8F0F3"/>
<path d="M149.963 24.5316H136.249L135.826 15.7071H149.963V24.5316ZM133.348 24.5316H108.592L108.587 15.7071H132.925L133.348 24.5316ZM105.694 24.5316H76.638V15.7071H105.688L105.694 24.5316ZM70.841 24.5316H52.5295V15.7071H70.841V24.5316" fill="#C7EEF1"/>
<path d="M136.249 24.5316H133.348L132.925 15.7071H135.826L136.249 24.5316ZM108.592 24.5316H105.694L105.688 15.7071H108.587L108.592 24.5316M76.638 24.5316H70.841V15.7071H76.638V24.5316Z" fill="#D8F0F3"/>
<path d="M283.273 91.1538H247.283C246.04 91.1538 245.032 92.1643 245.032 93.4103V108.299C245.032 109.545 246.04 110.555 247.283 110.555H275.618C276.765 112.16 278.843 115.032 279.027 115.032C279.198 115.032 278.868 112.319 278.635 110.555H283.273C284.516 110.555 285.524 109.545 285.524 108.299V93.4103C285.524 92.1643 284.516 91.1538 283.273 91.1538" fill="#800080"/>
<path d="M260.335 97.4364H249.97C249.794 97.4364 249.651 97.2943 249.651 97.1182V96.7721C249.651 96.596 249.794 96.4539 249.97 96.4539H260.335C260.511 96.4539 260.654 96.596 260.654 96.7721V97.1182C260.654 97.2943 260.511 97.4364 260.335 97.4364Z" fill="white"/>
<path d="M256.764 101.727H249.97C249.794 101.727 249.651 101.585 249.651 101.409V101.063C249.651 100.887 249.794 100.745 249.97 100.745H256.764C256.941 100.745 257.083 100.887 257.083 101.063V101.409C257.083 101.585 256.941 101.727 256.764 101.727Z" fill="white"/>
<path d="M266.808 101.727H259.391C259.215 101.727 259.073 101.585 259.073 101.409V101.063C259.073 100.887 259.215 100.745 259.391 100.745H266.808C266.984 100.745 267.127 100.887 267.127 101.063V101.409C267.127 101.585 266.984 101.727 266.808 101.727Z" fill="white"/>
<path d="M280.749 101.727H269.754C269.577 101.727 269.435 101.585 269.435 101.409V101.063C269.435 100.887 269.577 100.745 269.754 100.745H280.749C280.925 100.745 281.068 100.887 281.068 101.063V101.409C281.068 101.585 280.925 101.727 280.749 101.727Z" fill="white"/>
<path d="M280.75 97.4364H263.34C263.164 97.4364 263.021 97.2943 263.021 97.1182V96.7721C263.021 96.596 263.164 96.4539 263.34 96.4539H280.75C280.925 96.4539 281.068 96.596 281.068 96.7721V97.1182C281.068 97.2943 280.925 97.4364 280.75 97.4364Z" fill="white"/>
<path d="M264.072 106.101H249.97C249.794 106.101 249.651 105.957 249.651 105.781V105.435C249.651 105.26 249.794 105.117 249.97 105.117H264.072C264.248 105.117 264.39 105.26 264.39 105.435V105.781C264.39 105.957 264.248 106.101 264.072 106.101Z" fill="white"/>
<path d="M280.75 106.101H266.643C266.467 106.101 266.323 105.957 266.323 105.781V105.435C266.323 105.26 266.467 105.117 266.643 105.117H280.75C280.925 105.117 281.068 105.26 281.068 105.435V105.781C281.068 105.957 280.925 106.101 280.75 106.101Z" fill="white"/>
<path d="M98.4314 175.028H98.4308C98.455 174.884 98.4806 174.739 98.5075 174.594H98.5083C98.4814 174.739 98.4557 174.884 98.4314 175.028Z" fill="#E9D7A0"/>
<path d="M98.2575 176.275C98.2584 176.267 98.2593 176.259 98.2603 176.251C98.2593 176.259 98.2584 176.267 98.2575 176.275ZM98.2616 176.239C98.3076 175.832 98.3641 175.428 98.4307 175.028H98.4313C98.3645 175.428 98.3077 175.832 98.2616 176.239Z" fill="#C6CB99"/>
<path d="M98.5083 174.594H98.5074C98.5444 174.397 98.5839 174.199 98.626 174.003H98.6269C98.585 174.199 98.5454 174.397 98.5083 174.594Z" fill="#800080"/>
<path d="M285.513 180.957C285.513 180.957 285.513 180.957 285.513 180.956C285.513 180.957 285.513 180.957 285.513 180.957ZM285.516 180.928C285.555 180.552 285.584 180.173 285.606 179.791C285.607 179.791 285.606 179.791 285.607 179.791C285.585 180.173 285.555 180.552 285.516 180.928Z" fill="#E5C99D"/>
<path d="M285.606 179.791C285.611 179.71 285.615 179.63 285.618 179.548H285.621C285.616 179.63 285.612 179.71 285.607 179.791C285.606 179.791 285.607 179.791 285.606 179.791" fill="#800080"/>
<path d="M281.309 122.193L281.017 122.455C280.866 122.59 280.64 122.585 280.511 122.443L275.32 116.723C275.191 116.58 275.208 116.356 275.359 116.221L275.652 115.959C275.802 115.824 276.029 115.829 276.158 115.971L281.349 121.691C281.477 121.833 281.46 122.058 281.309 122.193Z" fill="#183658"/>
<path d="M298.907 117.546C298.214 116.98 292.848 119.34 292.916 120.162C292.984 120.983 289.173 128.948 289.173 128.948L282.585 123.683L282.583 123.684C282.524 123.493 281.9 121.446 281.869 121.08C281.838 120.695 280.724 120.022 280.207 120.122C279.691 120.222 280.65 120.871 280.712 120.99C280.883 121.316 280.221 121.437 280.221 121.437C280.221 121.437 278.317 120.39 278.277 119.775C278.237 119.159 277.844 117.868 277.433 118.137C277.22 118.277 277.223 119.193 277.289 119.628C277.167 119.135 276.993 118.577 276.825 118.521C276.517 118.42 276.363 118.814 276.419 119.006C276.475 119.199 276.972 121.293 277.123 121.53C277.272 121.759 280.345 124.242 280.788 124.781C280.788 124.781 289.309 134.545 289.916 134.8C290.447 135.024 292.346 131.66 294.139 129.425C295.932 127.192 301.076 119.313 298.907 117.546" fill="#F7A491"/>
<path d="M316.1 189.342C316.1 189.342 317.271 190.487 317.298 190.907C317.324 191.328 317.401 195.831 316.923 196.251C316.445 196.671 315.041 196.969 315.492 197.441C315.834 197.8 318.459 197.723 320.197 197.627C320.705 197.599 321.342 193.538 321.543 192.941C321.836 192.075 322.546 190.122 322.281 189.517C322.151 189.223 321.532 188.618 320.659 188.053C319.742 187.46 318.865 186.137 318.865 186.137L316.1 189.342Z" fill="#F48C7F"/>
<path d="M303.971 192.009L305.021 194.983C305.098 195.453 305.405 196.616 305.405 197.043C305.405 198.649 298.182 195.68 299.8 194.969C299.948 194.904 300.407 194.389 300.455 193.843C300.53 193.001 299.847 191.946 299.847 191.946L303.971 192.009" fill="#F7A491"/>
<path d="M292.64 136.757C292.64 136.757 292.114 142.075 292.114 142.155C292.114 150.76 290.412 167.567 290.736 169.185C291.525 173.131 300.022 193.26 300.022 193.26L304.613 192.71L298.63 168.609L300.831 158.909L303.948 139.735L292.64 136.757" fill="#800080" fill-opacity="0.9"/>
<path d="M308.052 141.462L308.923 146.503L311.281 167.252L320.259 187.531C320.259 187.531 318.996 190.481 317.132 190.895L302.843 170.075L293.968 143.434L294.279 137.516L308.052 141.462" fill="#730073"/>
<path d="M290.809 124.091L297.177 124.743C297.177 124.743 297.469 119.51 297.469 117.014C297.469 113.985 297.211 110.085 296.846 110.169C295.823 110.405 294.444 110.971 293.622 112.103C290.781 116.015 290.809 124.091 290.809 124.091" fill="#2A2A2A"/>
<path d="M293.937 116.48C293.803 117.403 291.356 142.505 291.356 142.505C302.95 148.118 309.347 143.505 309.347 143.505C309.347 143.505 308.968 125.879 309.422 123.479C309.724 121.891 310.098 111.344 309.072 111.048C307.756 110.67 306.246 110.266 304.6 110.095C303.196 109.949 297.739 109.864 296.762 110.193C296.762 110.193 294.498 112.597 293.937 116.48Z" fill="#2A2A2A"/>
<path d="M320.603 188.024C320.603 188.024 317.904 195.64 316.848 196.008C316.567 196.107 315.221 196.355 314.967 196.951C314.891 197.131 314.967 197.731 314.967 197.731H320.592C320.592 197.731 321.303 194.375 321.585 192.901C321.585 192.901 323.073 189.298 322.908 188.97C322.743 188.643 320.603 188.024 320.603 188.024Z" fill="#800080"/>
<path d="M305.816 197.573L304.989 194.953C304.989 194.953 303.252 195.69 302.382 195.568C301.514 195.445 299.819 194.953 299.819 194.953C296.352 196.097 293.512 196.652 294.028 197.573H305.816" fill="#800080"/>
<path d="M289.916 134.8C289.889 134.789 289.794 134.715 289.741 134.67C289.946 132.211 289.91 129.828 289.139 129.022C289.158 128.984 289.326 128.625 289.502 128.253C290.395 128.945 290.818 130.783 290.652 133.767C290.64 133.972 290.582 134.129 290.535 134.384C290.276 134.669 290.041 134.853 289.916 134.8" fill="#F7A491"/>
<path d="M320.83 142.771C320.838 142.718 320.839 142.663 320.834 142.61C320.663 140.872 319.223 126.273 318.98 125.653C318.761 125.093 312.304 115.835 312.304 115.835L309.13 120.169L315.34 128.473C315.479 129.001 317.719 138.856 317.719 138.856C317.719 138.856 318.179 140.651 318.386 141.727C318.291 141.987 318.2 142.231 318.118 142.432C317.912 142.861 317.67 143.213 317.448 143.51C317.171 143.884 316.712 144.697 316.656 144.916C316.59 145.17 316.471 145.697 316.404 146.014C316.337 146.332 316.245 146.702 316.229 146.875C316.221 146.981 316.112 147.189 316.028 147.338C315.904 147.557 316.116 147.819 316.356 147.738C316.582 147.663 316.757 147.37 316.865 147.188C317.171 146.673 317.334 145.733 317.409 145.783C317.486 145.832 317.754 147.428 317.796 147.607C317.839 147.788 318.16 149.64 318.341 149.979C318.522 150.318 318.763 150.261 318.826 150.048C318.88 149.866 318.625 147.274 318.625 147.274C318.625 147.274 318.594 146.944 318.738 147.047C318.883 147.151 319.119 149.503 319.22 149.848C319.319 150.192 319.549 150.375 319.744 150.098C319.979 149.762 319.573 147.266 319.573 147.266C319.573 147.266 319.527 146.951 319.661 146.981C319.795 147.01 319.962 149.016 320.066 149.189C320.17 149.362 320.433 149.424 320.558 149.135C320.705 148.795 320.323 146.57 320.323 146.57C320.323 146.57 320.343 146.393 320.426 146.452C320.509 146.511 320.773 148.21 320.946 148.368C321.091 148.5 321.212 148.371 321.212 148.371C321.528 148.155 321.043 146.539 321.048 145.735C321.053 144.932 320.681 144.028 320.792 143.071C320.799 143.012 320.818 142.863 320.83 142.771" fill="#F8A492"/>
<path d="M317.349 121.698L311.833 125.411C311.833 125.411 308.723 120.773 307.054 119.122C304.965 117.054 307.817 110.718 309.164 111.076C312.176 111.878 317.349 121.698 317.349 121.698Z" fill="#2A2A2A"/>
<path d="M304.195 104.669L305.021 110.121C305.021 110.121 302.007 116.611 300.208 116.049C298.699 115.576 299.628 109.833 299.628 109.833C299.628 109.833 300.45 106.748 300.203 105.204C299.956 103.662 304.195 104.669 304.195 104.669Z" fill="#F7A491"/>
<path d="M300.203 105.204C299.956 103.662 304.195 104.669 304.195 104.669L304.263 105.121C304.139 105.423 303.987 105.682 303.804 105.881C302.857 106.902 301.377 107.515 300.098 107.562C300.226 106.73 300.305 105.838 300.203 105.204Z" fill="#730073"/>
<path d="M304.89 96.9567C305.01 96.9129 305.851 103.165 304.256 104.886C302.661 106.606 299.554 107.169 298.439 105.814C297.206 104.315 297.268 97.5955 299.748 95.826C302.227 94.0565 304.89 96.9567 304.89 96.9567Z" fill="#F7A491"/>
<path d="M300.692 92.4813C302.609 92.8736 303.85 94.0468 304.306 94.5472C305.176 94.6504 306.359 95.1326 307.581 97.1596C309.082 99.6529 307.973 102.415 306.225 103.769C304.476 105.124 304.5 106.688 304.5 106.688L304.224 105.88C304.02 105.266 303.937 104.617 304.005 103.973C304.047 103.587 304.129 103.169 304.289 102.826C304.708 101.922 303.385 101.32 303.013 100.567C302.728 99.9881 302.714 98.6619 302.263 97.7037L301.726 96.9725C301.726 96.9725 300.486 96.0046 299.272 96.2766C298.058 96.5499 298.232 91.9785 300.692 92.4813" fill="#2D002D"/>
<path d="M303.095 101.68C303.083 102.443 303.429 103.067 303.868 103.075C304.307 103.083 304.674 102.471 304.686 101.708C304.7 100.945 304.353 100.32 303.914 100.312C303.474 100.305 303.108 100.917 303.095 101.68" fill="#F7A491"/>
<path d="M300.506 103.442L298.102 103.318C298.102 103.318 298.109 104.236 299.166 104.321C300.452 104.426 300.506 103.442 300.506 103.442Z" fill="white"/>
<path d="M203.198 43.6563C203.247 39.7736 206.437 36.6669 210.322 36.7155C214.209 36.7641 217.318 39.9509 217.27 43.8324C217.221 47.7152 214.031 50.8219 210.146 50.7733C206.259 50.7247 203.15 47.5379 203.198 43.6563V43.6563ZM196.257 49.2394L209.825 76.1477L224.069 49.5904C228.285 39.8489 221.516 28.7351 210.902 28.2942C210.745 28.2869 210.587 28.2833 210.429 28.2808C210.271 28.2784 210.113 28.2796 209.956 28.2821C199.334 28.4557 192.286 39.3959 196.257 49.2394Z" fill="#2D002D"/>
<path d="M359.474 201H6.73948C5.89689 201 5.21381 200.317 5.21381 199.476V199.097C5.21381 198.255 5.89689 197.573 6.73948 197.573H359.474C360.317 197.573 361 198.255 361 199.097V199.476C361 200.317 360.317 201 359.474 201Z" fill="#183658"/>
<path d="M204.505 178.912C204.505 178.912 201.927 189.683 202.313 190.617C202.313 190.617 221.012 189.768 206.586 188.119L208.079 183.625L204.505 178.912Z" fill="#1E1328"/>
<path d="M211.818 189.075C210.588 189.758 203.587 190.081 202.254 190.136L202.313 190.617C202.313 190.617 213.802 190.095 211.818 189.075Z" fill="#522546"/>
<path d="M184.72 134.27C184.72 134.27 178.683 145.435 183.881 148.142C187.357 149.951 207.079 160.742 207.079 160.742C207.079 160.742 202.618 179.509 202.618 182.892L208.991 184.568C208.991 184.568 217.925 158.63 216.248 156.092C214.571 153.555 197.968 142.728 197.968 142.728L199.31 139.007L184.72 134.27Z" fill="#3A003A"/>
<path d="M230.474 121.794C230.519 122.063 230.78 122.244 231.057 122.198L231.559 122.115C231.836 122.069 232.025 121.813 231.98 121.544C231.935 121.275 231.675 121.094 231.397 121.14L230.895 121.223C230.618 121.269 230.429 121.525 230.474 121.794Z" fill="#1E1328"/>
<path d="M230.808 120.389C230.891 120.649 231.212 120.779 231.524 120.679L232.09 120.498C232.402 120.398 232.588 120.107 232.505 119.847C232.422 119.587 232.101 119.457 231.789 119.557L231.223 119.738C230.911 119.838 230.725 120.129 230.808 120.389Z" fill="#1E1328"/>
<path d="M230.563 119.276C230.683 119.521 230.98 119.622 231.225 119.502L232.747 118.766C232.992 118.646 233.093 118.35 232.973 118.105C232.852 117.86 232.556 117.759 232.311 117.879L230.789 118.615C230.544 118.735 230.443 119.031 230.563 119.276Z" fill="#1E1328"/>
<path d="M230.895 121.223L231.397 121.14C231.516 121.12 231.631 121.142 231.728 121.195L231.527 122.12L231.057 122.198C230.78 122.244 230.519 122.063 230.474 121.794C230.429 121.525 230.618 121.269 230.895 121.223Z" fill="#1E1328"/>
<path d="M231.223 119.738L231.789 119.557C231.891 119.525 231.993 119.517 232.088 119.53L231.863 120.571L231.524 120.679C231.212 120.779 230.892 120.649 230.809 120.389C230.726 120.13 230.911 119.838 231.223 119.738Z" fill="#1E1328"/>
<path d="M230.789 118.615L232.311 117.879C232.358 117.857 232.406 117.842 232.455 117.834L232.196 119.033L231.225 119.502C230.98 119.623 230.683 119.521 230.563 119.277C230.443 119.031 230.544 118.735 230.789 118.615Z" fill="#1E1328"/>
<path d="M223.845 122.024C224.526 118.566 224.712 118.299 224.712 118.299C225.852 118.38 225.389 120.128 225.24 120.685C226.399 121.59 225.893 123.576 225.893 123.576L229.076 124.265C228.748 126.142 225.834 126.673 225.834 126.673L224.229 125.898L222.95 125.591L223.845 122.024Z" fill="#1E1328"/>
<path d="M226.911 125.934L223.235 128.302L221.243 125.21L224.534 123.09L226.911 125.934Z" fill="#1E1328"/>
<path opacity="0.2" d="M223.715 123.979L221.808 125.208L223.8 128.299L225.707 127.071L223.715 123.979Z" fill="#1E283A"/>
<path opacity="0.2" d="M225.836 123.841L225.893 123.576L229.076 124.265C229.06 124.356 229.038 124.444 229.011 124.528L225.836 123.841Z" fill="#1E283A"/>
<path d="M224.724 122.667C224.649 123.013 224.869 123.355 225.215 123.43L230.157 124.499C230.503 124.574 230.845 124.354 230.92 124.008L233.144 113.733C233.219 113.386 232.999 113.045 232.652 112.97L227.711 111.9C227.364 111.825 227.023 112.045 226.948 112.392L224.724 122.667Z" fill="#88304E"/>
<path d="M225.207 122.068C225.17 122.244 225.281 122.418 225.457 122.456L230.317 123.507C230.493 123.545 230.667 123.434 230.705 123.258L232.757 113.777C232.795 113.601 232.683 113.427 232.507 113.389L227.647 112.337C227.471 112.299 227.298 112.411 227.26 112.587L225.207 122.068Z" fill="white"/>
<path opacity="0.2" d="M227.462 123.382C227.424 123.555 227.534 123.726 227.707 123.764C227.881 123.801 228.052 123.691 228.089 123.518C228.126 123.345 228.017 123.174 227.843 123.136C227.67 123.099 227.499 123.209 227.462 123.382Z" fill="white"/>
<path d="M228.482 120.705L228.483 120.704L228.484 120.705L228.484 120.703C228.55 120.649 232.209 117.637 230.122 116.284C229.921 116.131 229.679 116.02 229.409 115.969C229.226 115.934 229.046 115.931 228.874 115.952C225.973 116.17 228.44 120.626 228.483 120.703L228.482 120.705Z" fill="#800080"/>
<path opacity="0.1" d="M227.98 116.247L229.969 119.172C229.323 120.012 228.515 120.678 228.484 120.703L228.484 120.705L228.483 120.704L228.482 120.705L228.483 120.703C228.446 120.636 226.591 117.284 227.98 116.247Z" fill="#060D19"/>
<path d="M229.712 117.701C229.645 118.051 229.308 118.28 228.958 118.214C228.608 118.147 228.378 117.809 228.445 117.459C228.512 117.11 228.849 116.88 229.199 116.947C229.549 117.013 229.779 117.351 229.712 117.701Z" fill="white"/>
<path d="M225.798 127.575L222.501 123.38L210.619 129.65C208.802 124.366 207.787 118.584 207.695 118.31V117.806C205.361 121.956 205.634 127.476 206.447 131.851L204.953 132.639L207.221 135.239C207.846 137.55 208.45 139.063 208.45 139.063C208.45 139.063 209.154 138.833 210.016 138.443L210.337 138.811L225.798 127.575Z" fill="#800080"/>
<path opacity="0.2" d="M225.798 127.575L222.501 123.38L210.619 129.65C208.802 124.366 207.787 118.584 207.695 118.31V117.806C205.361 121.956 205.634 127.476 206.447 131.851L204.953 132.639L207.221 135.239C207.846 137.55 208.45 139.063 208.45 139.063C208.45 139.063 209.154 138.833 210.016 138.443L210.337 138.811L225.798 127.575Z" fill="#111823"/>
<path opacity="0.1" d="M244.279 197.782C244.279 198.956 225.849 199.908 203.115 199.908C180.381 199.908 161.952 198.956 161.952 197.782C161.952 196.607 180.381 195.656 203.115 195.656C225.849 195.656 244.279 196.607 244.279 197.782Z" fill="#311D3F"/>
<path d="M228.297 163.684C237.116 163.684 244.29 170.921 244.29 179.817C244.29 188.713 237.116 195.95 228.297 195.95C219.477 195.95 212.303 188.713 212.303 179.817C212.303 170.921 219.478 163.684 228.297 163.684ZM228.297 161.593C218.318 161.593 210.229 169.752 210.229 179.817C210.229 189.883 218.318 198.042 228.297 198.042C238.275 198.042 246.364 189.883 246.364 179.817C246.364 169.752 238.275 161.593 228.297 161.593Z" fill="#877881"/>
<path d="M245.728 179.817C245.672 185.757 242.744 191.241 237.838 194.535C232.901 197.85 226.433 198.262 221.056 195.819C215.804 193.433 212.134 188.444 211.108 182.772C210.044 176.897 212.274 170.84 216.561 166.816C221.622 162.065 229.283 160.974 235.538 163.815C241.738 166.632 245.663 173.015 245.728 179.817C245.735 180.644 247.008 180.645 247 179.817C246.948 174.29 244.589 169.093 240.442 165.472C236.298 161.853 230.748 160.405 225.365 161.185C214.044 162.827 207.088 174.964 210.537 185.748C213.344 194.525 222.314 199.741 231.228 198.449C240.272 197.138 246.914 188.888 247 179.817C247.008 178.989 245.735 178.99 245.728 179.817Z" fill="#311D3F"/>
<path d="M228.071 163.451V197.199" stroke="#877881" stroke-width="0.12633" stroke-miterlimit="10"/>
<path d="M211.342 180.325H244.799" stroke="#877881" stroke-width="0.12633" stroke-miterlimit="10"/>
<path d="M216.242 168.393L239.899 192.257" stroke="#877881" stroke-width="0.12633" stroke-miterlimit="10"/>
<path d="M216.242 192.257L239.899 168.393" stroke="#877881" stroke-width="0.12633" stroke-miterlimit="10"/>
<path d="M221.577 164.774L234.564 195.876" stroke="#877881" stroke-width="0.12633" stroke-miterlimit="10"/>
<path d="M212.654 186.876L243.487 173.774" stroke="#877881" stroke-width="0.12633" stroke-miterlimit="10"/>
<path d="M212.578 173.961L243.563 186.689" stroke="#877881" stroke-width="0.12633" stroke-miterlimit="10"/>
<path d="M221.761 195.953L234.38 164.697" stroke="#877881" stroke-width="0.12633" stroke-miterlimit="10"/>
<path d="M224.776 163.781L231.366 196.868" stroke="#877881" stroke-width="0.12633" stroke-miterlimit="10"/>
<path d="M211.67 183.649L244.471 177.001" stroke="#877881" stroke-width="0.12633" stroke-miterlimit="10"/>
<path d="M214.144 170.977L241.998 189.673" stroke="#877881" stroke-width="0.12633" stroke-miterlimit="10"/>
<path d="M218.804 194.373L237.338 166.277" stroke="#877881" stroke-width="0.12633" stroke-miterlimit="10"/>
<path d="M218.667 166.369L237.474 194.281" stroke="#877881" stroke-width="0.12633" stroke-miterlimit="10"/>
<path d="M214.236 189.81L241.906 170.84" stroke="#877881" stroke-width="0.12633" stroke-miterlimit="10"/>
<path d="M211.639 177.164L244.503 183.486" stroke="#877881" stroke-width="0.12633" stroke-miterlimit="10"/>
<path d="M224.937 196.9L231.204 163.75" stroke="#877881" stroke-width="0.12633" stroke-miterlimit="10"/>
<path d="M228.296 182.601C229.821 182.601 231.057 181.355 231.057 179.817C231.057 178.28 229.821 177.033 228.296 177.033C226.772 177.033 225.536 178.28 225.536 179.817C225.536 181.355 226.772 182.601 228.296 182.601Z" fill="#877881"/>
<path d="M229.512 179.817C229.512 180.494 228.968 181.043 228.296 181.043C227.625 181.043 227.081 180.494 227.081 179.817C227.081 179.14 227.626 178.591 228.296 178.591C228.968 178.591 229.512 179.14 229.512 179.817Z" fill="#311D3F"/>
<path d="M175.722 163.684C184.541 163.684 191.716 170.921 191.716 179.817C191.716 188.713 184.541 195.95 175.722 195.95C166.903 195.95 159.728 188.713 159.728 179.817C159.728 170.921 166.903 163.684 175.722 163.684ZM175.722 161.593C165.744 161.593 157.655 169.752 157.655 179.817C157.655 189.883 165.744 198.042 175.722 198.042C185.7 198.042 193.789 189.883 193.789 179.817C193.789 169.752 185.7 161.593 175.722 161.593Z" fill="#877881"/>
<path d="M193.153 179.817C193.097 185.757 190.17 191.241 185.264 194.535C180.327 197.85 173.859 198.262 168.481 195.819C163.23 193.433 159.56 188.444 158.533 182.772C157.47 176.897 159.699 170.84 163.987 166.816C169.047 162.065 176.709 160.974 182.963 163.815C189.164 166.632 193.089 173.015 193.153 179.817C193.161 180.644 194.433 180.645 194.426 179.817C194.373 174.29 192.014 169.093 187.868 165.472C183.724 161.853 178.174 160.405 172.791 161.185C161.469 162.827 154.514 174.964 157.963 185.748C160.769 194.525 169.739 199.741 178.653 198.449C187.698 197.138 194.34 188.888 194.426 179.817C194.433 178.989 193.161 178.99 193.153 179.817Z" fill="#311D3F"/>
<path d="M175.496 163.451V197.199" stroke="#877881" stroke-width="0.12633" stroke-miterlimit="10"/>
<path d="M158.768 180.325H192.225" stroke="#877881" stroke-width="0.12633" stroke-miterlimit="10"/>
<path d="M163.668 168.393L187.325 192.257" stroke="#877881" stroke-width="0.12633" stroke-miterlimit="10"/>
<path d="M163.668 192.257L187.325 168.393" stroke="#877881" stroke-width="0.12633" stroke-miterlimit="10"/>
<path d="M169.003 164.774L181.99 195.876" stroke="#877881" stroke-width="0.12633" stroke-miterlimit="10"/>
<path d="M160.08 186.876L190.913 173.774" stroke="#877881" stroke-width="0.12633" stroke-miterlimit="10"/>
<path d="M160.003 173.961L190.989 186.689" stroke="#877881" stroke-width="0.12633" stroke-miterlimit="10"/>
<path d="M169.187 195.953L181.805 164.697" stroke="#877881" stroke-width="0.12633" stroke-miterlimit="10"/>
<path d="M172.201 163.781L178.791 196.868" stroke="#877881" stroke-width="0.12633" stroke-miterlimit="10"/>
<path d="M159.096 183.649L191.897 177.001" stroke="#877881" stroke-width="0.12633" stroke-miterlimit="10"/>
<path d="M161.569 170.977L189.423 189.673" stroke="#877881" stroke-width="0.12633" stroke-miterlimit="10"/>
<path d="M166.229 194.373L184.763 166.277" stroke="#877881" stroke-width="0.12633" stroke-miterlimit="10"/>
<path d="M166.093 166.369L184.9 194.281" stroke="#877881" stroke-width="0.12633" stroke-miterlimit="10"/>
<path d="M161.661 189.81L189.331 170.84" stroke="#877881" stroke-width="0.12633" stroke-miterlimit="10"/>
<path d="M159.064 177.164L191.928 183.486" stroke="#877881" stroke-width="0.12633" stroke-miterlimit="10"/>
<path d="M172.362 196.9L178.63 163.75" stroke="#877881" stroke-width="0.12633" stroke-miterlimit="10"/>
<path d="M197.344 178.996L175.574 178.323L174.834 181.087L196.167 188.378L197.344 178.996Z" stroke="#6D6269" stroke-width="0.594946" stroke-miterlimit="10" stroke-linecap="round" stroke-linejoin="round"/>
<path d="M197.215 185.304L204.158 190.668C204.158 190.668 202.902 191.855 203.14 191.871C203.602 191.901 196.452 186.135 196.452 186.135L197.215 185.304Z" fill="#877881"/>
<path d="M206.889 192.532L201.493 192.858C201.493 192.858 201.421 190.611 201.658 190.586C201.895 190.561 206.563 190.151 206.563 190.151L206.889 192.532Z" fill="#311D3F"/>
<path d="M197.269 189.602C200.295 189.602 202.749 187.127 202.749 184.075C202.749 181.022 200.295 178.548 197.269 178.548C194.243 178.548 191.79 181.022 191.79 184.075C191.79 187.127 194.243 189.602 197.269 189.602Z" fill="#A898A2"/>
<path d="M197.269 188.78C199.846 188.78 201.934 186.674 201.934 184.075C201.934 181.476 199.846 179.369 197.269 179.369C194.693 179.369 192.604 181.476 192.604 184.075C192.604 186.674 194.693 188.78 197.269 188.78Z" fill="#877881"/>
<path d="M175.722 182.601C177.247 182.601 178.482 181.355 178.482 179.817C178.482 178.28 177.247 177.033 175.722 177.033C174.198 177.033 172.962 178.28 172.962 179.817C172.962 181.355 174.198 182.601 175.722 182.601Z" fill="#877881"/>
<path d="M217.829 151.584L228.447 179.817" stroke="#600060" stroke-width="1.78481" stroke-miterlimit="10" stroke-linecap="round" stroke-linejoin="round"/>
<path d="M186.977 149.045L197.393 184.05L175.669 180.016L189.199 156.563H219.409L220.298 158.157L197.393 184.05" stroke="#600060" stroke-width="1.18989" stroke-miterlimit="10" stroke-linecap="round" stroke-linejoin="round"/>
<path d="M182.066 147.22L193.015 148.175C193.015 148.175 193.152 149.816 191.678 150.155C190.203 150.494 183.929 151.98 182.644 150.903C181.359 149.827 180.696 148.114 182.066 147.22Z" fill="#311D3F"/>
<path d="M217.358 153.592C218.023 153.29 218.705 153.037 219.401 152.824L218.749 151.198L226.33 149.606C226.922 149.493 227.309 148.917 227.196 148.321C227.084 147.724 226.513 147.332 225.921 147.447L217.036 149.29C216.716 149.352 216.44 149.555 216.284 149.844C216.128 150.133 216.108 150.477 216.231 150.782L217.358 153.592Z" fill="#877881"/>
<path d="M221.369 146.29C221.369 146.29 224.667 146.519 225.008 147.552C225.349 148.584 224.834 149.494 223.491 150.824C222.393 151.91 221.596 150.534 221.596 150.534C221.596 150.534 223.871 150.305 223.416 149.043C222.961 147.781 220.801 150.419 219.55 148.24C218.299 146.061 221.369 146.29 221.369 146.29Z" fill="#1E1328"/>
<path d="M197.204 185.832C198.284 185.832 199.16 184.949 199.16 183.859C199.16 182.77 198.284 181.887 197.204 181.887C196.124 181.887 195.249 182.77 195.249 183.859C195.249 184.949 196.124 185.832 197.204 185.832Z" fill="#C6B5C1"/>
<path d="M196.955 184.702L189.996 179.359C189.996 179.359 191.248 178.168 191.01 178.153C190.548 178.125 197.716 183.868 197.716 183.868L196.955 184.702Z" fill="#A898A2"/>
<path d="M188.084 177.469L194.62 179.302C194.62 179.302 194.238 181.17 194 181.16C193.762 181.15 187.613 179.297 187.613 179.297L188.084 177.469Z" fill="#311D3F"/>
<path d="M198.242 183.846C198.242 184.424 197.777 184.892 197.204 184.892C196.631 184.892 196.167 184.424 196.167 183.846C196.167 183.268 196.631 182.799 197.204 182.799C197.777 182.799 198.242 183.267 198.242 183.846Z" fill="#A898A2"/>
<path d="M195.003 170.458C195.003 170.458 190.094 177.114 190.146 178.125C190.146 178.125 208.041 183.663 195.003 177.22L197.906 173.493L195.003 170.458Z" fill="#1E1328"/>
<path d="M199.612 179.894C198.226 180.12 191.524 178.051 190.251 177.652L190.147 178.125C190.147 178.125 201.141 181.527 199.612 179.894Z" fill="#522546"/>
<path d="M184.72 134.27C184.72 134.27 178.683 145.435 183.881 148.142C187.357 149.951 204.162 157.108 204.162 157.108C204.162 157.108 194.025 168.471 191.678 173.546L196.627 176.392C196.627 176.392 216.589 157.451 215.695 154.538C214.483 150.59 199.531 143.61 199.531 143.61L200.903 139.457L184.72 134.27Z" fill="#2D002D"/>
<path d="M188.568 141.271C192.105 141.837 195.657 142.438 199.213 142.86C199.394 142.882 199.576 142.902 199.757 142.923L200.902 139.457L184.72 134.27C184.72 134.27 183.298 136.9 182.428 139.916C184.423 140.559 186.513 140.942 188.568 141.271Z" fill="#682741"/>
<path d="M203.104 101.601C203.104 101.601 203.879 96.8568 210.556 96.9451C217.234 97.0331 217.412 104.438 215.542 109.375C213.673 114.312 211.196 115.305 208.525 114.512C205.854 113.718 200.7 110.681 203.104 101.601Z" fill="#FFB6B6"/>
<g opacity="0.7">
<path d="M203.754 105.302C203.693 105.227 203.642 105.146 203.601 105.057C203.58 105.012 203.561 104.967 203.547 104.918C203.533 104.869 203.519 104.819 203.521 104.764C203.519 104.711 203.525 104.651 203.551 104.596C203.571 104.539 203.616 104.487 203.665 104.454C203.715 104.415 203.768 104.397 203.822 104.379C203.849 104.367 203.875 104.368 203.902 104.362L203.982 104.35L203.888 104.413C203.967 104.197 204.035 103.969 204.081 103.745C204.124 103.521 204.152 103.289 204.099 103.094C204.082 103.049 204.069 102.999 204.04 102.965L204.02 102.937C204.02 102.937 204.006 102.919 204.018 102.93L204.001 102.916C203.98 102.9 203.953 102.868 203.938 102.863C203.912 102.848 203.875 102.83 203.831 102.832C203.79 102.831 203.742 102.843 203.695 102.866C203.647 102.886 203.601 102.918 203.557 102.953C203.512 102.987 203.467 103.024 203.425 103.066C203.341 103.148 203.264 103.24 203.188 103.335C203.229 103.22 203.287 103.112 203.354 103.008C203.421 102.903 203.502 102.804 203.615 102.727C203.67 102.687 203.739 102.657 203.817 102.648C203.893 102.636 203.976 102.652 204.055 102.694C204.095 102.713 204.108 102.729 204.136 102.748L204.154 102.761C204.178 102.782 204.171 102.779 204.181 102.789L204.217 102.832C204.268 102.887 204.294 102.956 204.322 103.021C204.344 103.087 204.362 103.155 204.366 103.221C204.378 103.289 204.372 103.353 204.375 103.419C204.368 103.547 204.354 103.674 204.325 103.796C204.272 104.042 204.187 104.271 204.082 104.498L204.054 104.559L203.988 104.561L203.927 104.564C203.907 104.566 203.884 104.562 203.867 104.569C203.83 104.576 203.792 104.584 203.764 104.602C203.746 104.607 203.737 104.62 203.724 104.63C203.71 104.639 203.7 104.652 203.692 104.667C203.672 104.693 203.66 104.731 203.655 104.771C203.63 104.936 203.689 105.126 203.754 105.302Z" fill="#AF7068"/>
</g>
<path d="M214.131 104.879C214.131 104.879 214.135 104.941 214.137 105.05C214.136 105.159 214.142 105.315 214.137 105.501C214.129 105.873 214.098 106.367 214.046 106.858C213.993 107.35 213.92 107.84 213.849 108.205C213.815 108.388 213.776 108.539 213.754 108.645C213.729 108.751 213.711 108.812 213.711 108.812C213.711 108.812 213.707 108.749 213.705 108.64C213.706 108.531 213.699 108.375 213.705 108.189C213.712 107.817 213.744 107.324 213.795 106.832C213.849 106.34 213.922 105.851 213.993 105.486C214.027 105.303 214.066 105.151 214.089 105.045C214.113 104.939 214.131 104.879 214.131 104.879Z" fill="#AF7068"/>
<path d="M214.926 107.329C213.126 105.512 205.79 105.699 202.895 105.788C202.497 112.053 206.279 113.912 208.58 114.595C211.276 115.396 213.776 114.393 215.663 109.41C215.766 109.138 215.862 108.857 215.952 108.571C215.682 108.17 215.346 107.752 214.926 107.329Z" fill="#EFEFEF"/>
<path opacity="0.1" d="M211.686 112.794C208.939 111.016 205.966 109.689 202.987 108.371C203.623 112.595 206.632 114.017 208.58 114.596C210.149 115.062 211.652 114.914 213.006 113.729C212.578 113.402 212.14 113.087 211.686 112.794Z" fill="#1E1328"/>
<path d="M203.041 108.833C203.041 108.833 202.994 109.567 202.874 109.277C202.475 108.316 201.644 105.003 202.224 101.982C202.979 98.0487 204.677 95.8918 204.677 95.8918L209.393 97.2241C209.393 97.2241 209.77 101.538 205.683 103.06L204.844 105.767L204.111 105.746C204.111 105.746 205.18 102.616 203.922 102.236C202.664 101.855 202.224 104.837 203.607 105.788" fill="#1E1328"/>
<path d="M211.756 105.453C211.756 105.453 211.755 105.392 211.755 105.287C211.756 105.183 211.745 105.034 211.723 104.861C211.698 104.689 211.655 104.491 211.563 104.309C211.516 104.219 211.454 104.138 211.383 104.068C211.345 104.035 211.306 104.003 211.262 103.978C211.238 103.959 211.162 103.93 211.114 103.907C211.028 103.882 210.928 103.852 210.83 103.866C210.734 103.878 210.636 103.899 210.55 103.951C210.373 104.042 210.236 104.192 210.131 104.327C210.029 104.465 209.95 104.592 209.909 104.687C209.864 104.781 209.84 104.837 209.84 104.837C209.84 104.837 209.842 104.822 209.845 104.794C209.849 104.766 209.848 104.723 209.862 104.671C209.883 104.567 209.921 104.416 210.008 104.249C210.05 104.165 210.105 104.079 210.175 103.994C210.246 103.91 210.329 103.824 210.437 103.759C210.54 103.689 210.669 103.639 210.805 103.623C210.943 103.602 211.081 103.632 211.221 103.678C211.321 103.723 211.464 103.797 211.552 103.893C211.649 103.989 211.715 104.104 211.764 104.216C211.857 104.445 211.874 104.669 211.867 104.854C211.862 105.04 211.826 105.189 211.803 105.293C211.778 105.396 211.756 105.453 211.756 105.453Z" fill="#1E1328"/>
<path d="M215.735 106.677C215.735 106.677 215.734 106.622 215.732 106.525C215.73 106.429 215.727 106.291 215.712 106.13C215.696 105.969 215.671 105.782 215.611 105.599C215.583 105.507 215.538 105.42 215.487 105.343C215.431 105.266 215.373 105.206 215.28 105.167C215.253 105.15 215.234 105.145 215.217 105.141C215.198 105.137 215.183 105.125 215.161 105.126C215.12 105.118 215.078 105.121 215.037 105.128C214.956 105.147 214.875 105.188 214.804 105.246C214.736 105.308 214.669 105.372 214.616 105.446C214.562 105.517 214.515 105.59 214.475 105.659C214.395 105.798 214.338 105.922 214.302 106.011C214.266 106.101 214.246 106.153 214.246 106.153C214.246 106.153 214.247 106.097 214.259 106C214.272 105.903 214.299 105.764 214.359 105.604C214.419 105.445 214.511 105.261 214.673 105.099C214.758 105.023 214.861 104.948 214.992 104.917C215.058 104.904 215.125 104.899 215.193 104.909C215.256 104.918 215.344 104.946 215.386 104.971C215.496 105.02 215.6 105.122 215.665 105.223C215.733 105.326 215.773 105.438 215.8 105.545C215.851 105.76 215.852 105.961 215.84 106.129C215.828 106.298 215.8 106.435 215.776 106.53C215.753 106.625 215.735 106.677 215.735 106.677Z" fill="#1E1328"/>
<path d="M213.544 103.504C213.544 103.504 213.471 103.456 213.344 103.371C213.283 103.33 213.208 103.28 213.123 103.224C213.04 103.165 212.938 103.11 212.839 103.041C212.732 102.981 212.626 102.906 212.506 102.842C212.389 102.774 212.266 102.706 212.136 102.645C212.011 102.573 211.872 102.53 211.741 102.467C211.674 102.44 211.603 102.426 211.535 102.4C211.467 102.377 211.399 102.35 211.328 102.342L211.12 102.296C211.051 102.28 210.981 102.283 210.912 102.274C210.843 102.272 210.773 102.252 210.705 102.259C210.637 102.263 210.569 102.268 210.501 102.268C210.364 102.26 210.236 102.305 210.107 102.32C209.975 102.33 209.859 102.379 209.745 102.411C209.634 102.448 209.517 102.461 209.428 102.507C209.338 102.547 209.252 102.577 209.183 102.603C209.042 102.655 208.953 102.68 208.953 102.68C208.953 102.68 208.997 102.605 209.091 102.483C209.139 102.422 209.196 102.346 209.268 102.265C209.334 102.175 209.436 102.107 209.542 102.021C209.651 101.94 209.766 101.841 209.916 101.782C210.062 101.72 210.213 101.63 210.391 101.605C210.566 101.566 210.749 101.526 210.94 101.539C211.034 101.543 211.132 101.533 211.226 101.551L211.507 101.606C211.695 101.645 211.868 101.724 212.037 101.796C212.196 101.885 212.358 101.967 212.49 102.076C212.63 102.175 212.75 102.286 212.858 102.396C212.969 102.503 213.055 102.621 213.138 102.723C213.292 102.941 213.4 103.132 213.459 103.276C213.523 103.417 213.544 103.504 213.544 103.504Z" fill="#1E1328"/>
<path d="M214.613 104.139C214.613 104.139 214.627 104.087 214.667 104.008C214.708 103.93 214.773 103.825 214.871 103.717C214.968 103.608 215.102 103.501 215.269 103.411C215.358 103.373 215.444 103.326 215.554 103.306C215.608 103.296 215.658 103.278 215.717 103.275L215.896 103.271C215.954 103.268 216.022 103.291 216.084 103.303C216.147 103.316 216.208 103.335 216.266 103.371C216.326 103.402 216.383 103.437 216.434 103.474C216.479 103.519 216.523 103.564 216.56 103.612C216.648 103.702 216.668 103.808 216.708 103.899C216.747 103.992 216.736 104.078 216.744 104.157C216.749 104.235 216.743 104.305 216.725 104.365C216.713 104.425 216.694 104.477 216.68 104.518C216.651 104.601 216.625 104.646 216.625 104.646C216.625 104.646 216.585 104.606 216.531 104.541C216.504 104.508 216.471 104.47 216.441 104.427C216.413 104.381 216.369 104.339 216.328 104.297C216.285 104.257 216.257 104.199 216.207 104.171C216.16 104.144 216.129 104.092 216.083 104.085C216.062 104.078 216.045 104.067 216.03 104.056C216.008 104.054 215.99 104.052 215.973 104.045C215.959 104.035 215.935 104.038 215.915 104.035C215.892 104.035 215.878 104.022 215.849 104.027C215.798 104.025 215.745 104.022 215.681 104.029C215.621 104.027 215.551 104.044 215.485 104.045C215.337 104.066 215.198 104.085 215.08 104.101C214.951 104.114 214.836 104.128 214.751 104.132C214.668 104.138 214.613 104.139 214.613 104.139Z" fill="#1E1328"/>
<path d="M217.673 100.776C217.673 100.776 218.428 95.025 214.235 92.9104C210.043 90.7959 203.754 92.1493 202.496 99.2541L217.673 100.776Z" fill="#800080"/>
<path opacity="0.1" d="M217.673 100.776C217.673 100.776 218.428 95.025 214.235 92.9104C210.043 90.7959 203.754 92.1493 202.496 99.2541L217.673 100.776Z" fill="#111823"/>
<path d="M202.496 99.2542C202.496 99.2542 219.853 104.498 221.95 102.722C223.128 101.723 219.434 100.185 217.841 99.677C216.751 100.523 202.496 99.2542 202.496 99.2542Z" fill="#800080"/>
<path d="M211.049 115.155C209.333 112.905 201.074 107.615 201.074 107.615C199.579 109.479 198.627 110.929 198.052 111.904C192.069 114.018 186.821 121.812 182.374 136.515C182.374 136.515 193.354 142.053 203.304 141.88C203.304 141.88 209.911 125.883 208.805 117.176L211.049 115.155Z" fill="#600060"/>
<path opacity="0.1" d="M211.049 115.155C209.333 112.905 201.074 107.615 201.074 107.615C199.579 109.479 198.627 110.929 198.052 111.904C192.069 114.018 186.821 121.812 182.374 136.515C182.374 136.515 193.354 142.053 203.304 141.88C203.304 141.88 209.911 125.883 208.805 117.176L211.049 115.155Z" fill="#111823"/>
<path d="M198.956 110.039C198.956 110.039 205.515 110.595 206.354 116.968C207.192 123.34 203.167 138.601 184.72 133.067L184.888 131.222C184.888 131.222 195.285 134.409 201.826 127.533C208.366 120.657 196.459 111.769 196.459 111.769L198.956 110.039Z" fill="#311D3F"/>
<path opacity="0.4" d="M198.956 110.039C198.956 110.039 205.515 110.595 206.354 116.968C207.192 123.34 203.167 138.601 184.72 133.067L185.826 131.349C185.826 131.349 195.238 134.198 201.826 127.533C208.497 120.784 196.965 112.741 196.965 112.741L198.956 110.039Z" fill="#D8B0D8"/>
<path d="M183.794 134.26C183.794 134.26 172.13 129.676 166.639 125.734C166.639 125.734 175.305 107.245 180.79 99.8901C180.79 99.8901 193.833 105.798 198.956 110.04C198.956 110.039 188.841 127.872 183.794 134.26Z" fill="#311D3F"/>
<path opacity="0.4" d="M184.341 101.569C182.23 100.542 180.79 99.8898 180.79 99.8898C175.305 107.244 166.639 125.733 166.639 125.733C167.988 126.702 169.709 127.709 171.539 128.677C175.769 119.625 180.319 110.695 184.341 101.569Z" fill="#D8B0D8"/>
<path d="M179.605 101.875L182.121 103.3L170.633 126.275L171.136 126.778L182.708 103.048L179.773 101.372L179.605 101.875Z" fill="#311D3F"/>
<path d="M178.767 106.067L181.366 103.468L181.534 103.887L179.605 107.073L178.767 106.067Z" fill="#311D3F"/>
<path d="M219.901 148.694C219.901 148.694 216.582 147.336 214.755 144.28L218.121 143.018C218.121 143.018 219.42 145.201 221.584 146.317L219.901 148.694Z" fill="#1E1328"/>
<path d="M224.905 147.416C224.905 147.416 225.855 149.247 225.37 150.163C224.884 151.079 224.652 149.865 224.652 149.865C224.652 149.865 224.842 151.122 223.427 150.866L224.905 147.416Z" fill="#1E1328"/>
<path d="M194.009 118.648C194.009 118.648 193.494 109.649 200.185 112.591C205.56 114.954 206.704 129.204 211.165 133.703L221.286 144.951L217.169 147.72C217.169 147.72 208.934 143.221 203.102 136.991C197.269 130.762 194.009 118.648 194.009 118.648Z" fill="#800080"/>
</svg>
